<svg xmlns="http://www.w3.org/2000/svg" viewBox="0 0 290 66"><style>.st0{fill:#e2001a;}</style><path class="st0" d="M178.8 14.5V7.1c0-1.9-1.3-3.2-3.2-3.2h-1.5c-.8 0-1.4.2-2 .7-.6-.6-1-.7-1.9-.7H169c-.8 0-1.5.7-1.6.8V4h-2.3v10.5h2.3V6.9c0-.5.6-.8 1.1-.8h1.2c.6 0 1.1.5 1.1 1v7.4h2.3V7.1c0-.6.5-1 1.1-1h1c.6 0 1.2.5 1.2 1.1v7.3h2.4zm-16.3 0V4h-2.4v7.5c-.2.5-.6.8-1.2.8h-1.3c-.6 0-1.2-.5-1.2-1.1V4h-2.3v7.2c0 1.9 1.4 3.3 3.3 3.3h1.1c.8 0 1.5-.7 1.6-.8v.7h2.4v.1zm-11.1 0V7.1c0-1.9-1.4-3.2-3.3-3.2H147c-.8 0-1.5.7-1.6.8V0H143v14.5h2.4V6.9c0-.6.6-.8 1.2-.8h1.3c.6 0 1.2.5 1.2 1.1v7.3h2.3zm-10.7-3.3l-2.4-.1c0 1-.4 1.2-1.1 1.2h-1.4c-.6 0-1.1-.6-1.1-1.2v-4c0-.6.5-1.1 1.1-1.1h1.4c.6 0 1.1.5 1.1 1.1h2.4c0-1.9-1.5-3.2-3.5-3.2h-1.5c-1.9 0-3.4 1.5-3.4 3.3v3.9c0 1.9 1.6 3.4 3.5 3.4h1.5c2.1.1 3.4-1.4 3.4-3.3zm20.8 16.6h-1.6l-2.6 8.2-2.6-8.2H153l3.5 10.2-1.2 3.8h1.6l4.6-14zm-17.9-2.4v-1.8h-1.8v1.8h1.8zm8.5 4v-1.6h-3v-4h-1.5v4h-1.9v1.6h1.9V35c0 1.8.8 3.2 3.2 3.2h1.1v-1.4h-1.1c-1.3 0-1.7-.7-1.7-1.8v-5.6h3zm-22-18.2v-4c0-1.9-1.6-3.3-3.5-3.3h-1.4c-1.9 0-3.4 1.5-3.4 3.3v3.9c0 1.9 1.5 3.4 3.4 3.4h1.4c2 .1 3.5-1.4 3.5-3.3zm13.4 27V27.8H142v10.3h1.5v.1zm26.4 21.2v-1c0-1.5-1-2.4-2.5-2.4h-3c-.6 0-1.1-.5-1.1-1.1v-.7c0-.6.5-1.2 1.1-1.2h2.4c.7 0 1.1.6 1.1 1.2h1.5c0-1.4-1.1-2.6-2.5-2.6h-2.4c-1.4 0-2.7 1.1-2.7 2.6v.7c0 1.5 1 2.5 2.5 2.5h3c.6 0 1.1.4 1.1 1v1c0 .6-.6 1.1-1.1 1.1h-3.2c-.6 0-.9-.3-1-1.1h-1.5c0 1.5.9 2.5 2.4 2.5h3.2c1.8 0 2.7-1.1 2.7-2.5zm-50.7-48.5V9.6c0-.9-.4-1.8-.9-2.4.6-.6.9-1.5.9-2.4V3.6c0-1.9-1.7-3.6-3.6-3.6h-6v14.5h6c1.9 0 3.6-1.6 3.6-3.6zm20.2 24.8v-1c0-1.5-1-2.5-2.5-2.5h-3.1c-.6 0-1-.5-1-1.1v-.9c0-.6.4-1 1-1h2.4c.7 0 1.2.6 1.2 1.1h1.5c0-1.4-1.2-2.5-2.6-2.5H134c-1.4 0-2.6 1-2.6 2.5v.8c0 1.5 1 2.6 2.5 2.6h3c.6 0 1 .4 1 1v1c0 .6-.4 1-1 1h-3.1c-.6 0-1.1-.4-1.1-1h-1.6c-.1 1.4 1 2.4 2.5 2.4h3.2c1.8.1 2.5-1 2.6-2.4zm19.8 21.7v-2.7c0-1.8-1.3-3.2-3.2-3.2h-1.6c-1.9 0-3.2 1.5-3.2 3.2v4.2c0 2 1.4 3.1 3.2 3.1h1.8c1.9 0 2.9-1.1 3-2.5h-1.6c-.1.7-.6 1.1-1.4 1.1h-1.6c-.9 0-1.9-.4-1.9-1.7v-1.5h6.5zm-29.7-28.1v-1.6h-1.8c-.6 0-1.4.3-2 1v-.9h-1.5V38h1.5v-7c0-.9.8-1.7 1.8-1.7h2zm-27.6-17.7h-2.4c0 .4-.3.7-.8.7h-1.6c-.6 0-1.2-.5-1.2-1.1v-.8h6V7.2c0-1.9-1.5-3.3-3.4-3.3h-1.4c-1.9 0-3.5 1.5-3.5 3.3v3.9c0 1.9 1.6 3.4 3.5 3.4h1.6c1.7.1 3.2-1.2 3.2-2.9zm46.8 47.3h-1.5c-.1 1.2-.6 1.6-1.8 1.6h-1.6c-1 0-1.7-.8-1.7-1.7v-4.1c0-1.2.6-1.9 1.7-1.9h1.6c.8 0 1.7.6 1.8 1.4v.2h1.5v-.3c0-1.6-1.6-2.7-3.2-2.7h-1.6c-1.9 0-3.2 1.5-3.2 3.2v4.1c0 1.7 1.3 3.2 3.2 3.2h1.8c2.1 0 2.9-1.3 3-3zM91.9 14.6v-2.2h-.7c-.6 0-1.1-.5-1.1-1.1V0h-2.4v11.2c0 1.9 1.6 3.3 3.5 3.3h.7v.1zm9.8 10.8v-1.8H100v1.8h1.7zm10.2 2.4h-1.6l-2.5 8.4-2.5-8.4h-1.7l3.3 10.2h1.7l3.3-10.2zM85.1 14.5V4h-2.3v7.5c0 .5-.6.8-1.2.8h-1.4c-.6 0-1.1-.5-1.1-1.1V4h-2.4v7.2c0 1.9 1.5 3.3 3.4 3.3h1c.8 0 1.6-.7 1.7-.8v.7h2.3v.1zm16.5 23.6V27.8h-1.5V38h1.5v.1zm15 11v-1.8h-1.8v1.8h1.8zM74.1 14.5V7.1c0-1.9-1.2-3.2-3.3-3.2h-1c-.9 0-1.7.8-1.7.8V0h-2.4v14.5H68v-8s.4-.5 1.3-.5h1.3c.7 0 1.1.5 1.1 1.1v7.3h2.4v.1zm42.3 47.3V51.6h-1.5v10.2h1.5zM86.2 35V23.7h-1.5V35c0 .9-.8 1.8-1.8 1.8H80c-.9 0-1.8-.8-1.8-1.8V23.7h-1.6V35c0 1.8 1.3 3.2 3.2 3.2H83c1.8 0 3.2-1.2 3.2-3.2zM63.3 11.2l-2.3-.1c0 1-.4 1.2-1.1 1.2h-1.4c-.6 0-1.2-.6-1.2-1.2v-4c0-.6.6-1.1 1.2-1.1h1.4c.6 0 1.1.5 1.1 1.1h2.3c0-1.9-1.4-3.2-3.4-3.2h-1.5c-1.9 0-3.4 1.5-3.4 3.3v3.9c0 1.9 1.5 3.4 3.4 3.4h1.5c1.9.1 3.4-1.4 3.4-3.3zM102 58.7v-.9c0-1.2-.6-2.3-1.7-2.8l-5.2-2.3c-.6-.3-.8-.8-.8-1.5v-.7c0-.9.8-1.7 1.8-1.7h2c.8 0 1.8.6 1.9 1.5h1.5c-.2-1.7-1.7-3-3.4-3h-2c-1.8 0-3.3 1.4-3.3 3.2v.7c0 1.8.8 2.5 2.3 3.2l4.2 1.9c.9.5 1.2 1 1.2 1.6v.9c0 1.1-.7 1.8-1.8 1.8h-2.6c-.9 0-1.7-.6-1.8-1.6h-1.6c.2 1.7 1.5 3.1 3.2 3.1h2.8c2-.2 3.3-1.7 3.3-3.4zm-49.2-47v-.8c0-1.7-1.1-2.8-2.7-2.8h-2.9c-.3 0-.6-.1-.6-.5V6.5c.1-.4.4-.5.7-.5h2.1c.4 0 .6.1.6.8h2.4c0-1.7-1.4-2.9-3-2.9h-2.2c-1.6 0-2.9 1.2-2.9 2.8v.8c0 1.6 1.3 2.7 2.9 2.7h2.5c.3 0 .6.2.6.6v1.1c0 .3-.3.5-.6.5H47c-.4 0-.6-.2-.6-.7H44c0 1.7 1.3 3 2.9 3h2.9c1.7-.1 3-1.4 3-3zM42 14.5V7.1c0-1.9-1.3-3.2-3.2-3.2h-1.2c-.8 0-1.5.7-1.6.8V0h-2.4v14.5H36V6.9c-.1-.6.5-.9 1-.9h1.4c.7 0 1.2.5 1.2 1.1v7.3H42v.1zm26.8 23.6V31c0-1.8-1.4-3.2-3.2-3.2h-1.2c-1.1 0-1.7.4-2.5 1.2-.7-.8-1.8-1.2-2.3-1.2h-1.3c-1 0-1.5.3-2 .8v-.7h-1.5v10.2h1.5v-7.3c0-1 .8-1.6 1.8-1.6h1.6c.8 0 1.6.8 1.6 1.8v7.1h1.5v-7.2c0-.9.7-1.7 1.8-1.7h1.3c.9 0 1.6.8 1.6 1.8v7.1h1.3zm16.3 23.7V47.3h-1.5v4.9c-.5-.5-.9-.7-1.8-.7h-1.5c-1.9 0-3.2 1.4-3.2 3.2v4.1c0 1.8 1.4 3.2 3.2 3.2h1.3c.7 0 1.5-.2 2-.9v.8h1.5v-.1zM31.3 11.2l-2.4-.1c0 1-.4 1.2-1.1 1.2h-1.4c-.6 0-1.1-.6-1.1-1.2v-4c0-.6.5-1.1 1.1-1.1h1.4c.7 0 1.1.5 1.1 1.1h2.4c0-1.9-1.5-3.2-3.5-3.2h-1.6c-1.9 0-3.3 1.5-3.3 3.3v3.9c0 1.9 1.5 3.4 3.4 3.4h1.5c1.9.1 3.5-1.4 3.5-3.3zm20.8 26.9V27.8h-1.6v7.4c0 1-.6 1.5-1.7 1.5H47c-1.1 0-1.7-.7-1.7-1.7v-7.2h-1.5V35c0 1.9 1.2 3.2 3.2 3.2h1.4c1 0 1.6-.2 2.1-.7v.6h1.6zm11.7 11v-1.8H62v1.8h1.8zm10.7 8.5v-2.9c0-1.8-1.4-3.2-3.2-3.2h-1.7c-1.9 0-3.2 1.4-3.2 3.2v4.2c0 1.7 1.4 3.1 3.2 3.1h1.9c1.6 0 2.9-.9 2.9-2.5h-1.6c-.2.7-.6 1.1-1.4 1.1h-1.6c-1.1 0-1.9-.5-1.9-1.6v-1.4h6.6zm-54-46.4v-4c0-1.9-1.5-3.3-3.4-3.3h-1.4c-1.9 0-3.5 1.5-3.5 3.3v3.9c0 1.9 1.6 3.4 3.5 3.4h1.4c1.9.1 3.4-1.4 3.4-3.3zm43.2 50.6V51.6h-1.5v10.2h1.5zM41.1 38.1V31c0-1.8-1.4-3.2-3.2-3.2h-1.5c-1 0-1.5.3-2 .8v-4.9h-1.6v14.4h1.6v-7.3c0-1 .7-1.6 1.7-1.6h1.8c.9 0 1.8.7 1.8 1.7v7.2h1.4zm19.2 23.8v-1.5h-.6c-.5 0-.9-.1-1.2-.4-.4-.3-.6-.7-.6-1.3V47.3h-1.6v11.4c0 2.2 1.3 3.2 3.3 3.2h.7zM9.7 14.5V0H7.1v5.9H2.5V0H0v14.5h2.5V8.4h4.6v6.1h2.6zm44 44.3v-4.1c0-1.8-1.3-3.2-3.2-3.2h-1.3c-.7 0-1.2.2-1.9.9v-.8h-1.6v14.3h1.6v-4.7c.5.5.9.8 1.8.8h1.5c1.7-.1 3.1-1.1 3.1-3.2zm-10.7 0v-4.1c0-1.8-1.3-3.2-3.2-3.2h-1.2c-.7 0-1.3.2-2 .9v-.8H35v14.3h1.5v-4.7c.5.5 1 .8 1.9.8h1.4c1.8-.1 3.2-1.4 3.2-3.2zM9.4 34.9v-1.5c0-.9-.5-1.9-1.2-2.5.7-.6 1.2-1.6 1.2-2.5v-1.5c0-1.8-1.2-3.2-3.2-3.2H0v14.4h6.1c2.1 0 3.3-1.4 3.3-3.2zm23.8 26.9L29 47.3h-2.4l-4.5 14.5h1.7l.8-2.8h6.2l.8 2.8h1.6zm-16.9-8.7v-1.5h-3v-1c0-.9.8-1.8 1.8-1.8h1.1v-1.5h-1.1c-1.8 0-3.2 1.4-3.2 3.2v1.1H10v1.5h1.9v8.7h1.5v-8.7h2.9zm-8.2 5.6v-4.1c0-1.9-1.6-3.1-3.2-3.1H3.2c-1.7 0-3.2 1.1-3.2 2.7v4.5c0 1.9 1.4 3.2 3.2 3.2h1.6c1.8 0 3.3-1.5 3.3-3.2zm119.7-47.5c0 .6-.6 1.1-1.2 1.1h-1.3c-.6 0-1.2-.5-1.2-1.1V7.1c0-.6.6-1.1 1.2-1.1h1.3c.6 0 1.2.5 1.2 1.1v4.1zm-11.1-6.4c0 .6-.5 1.1-1.1 1.1H112V2.3h3.5c.6 0 1.1.6 1.1 1.2v1.3h.1zm0 6.1c0 .6-.5 1.2-1.1 1.2H112V8.3h3.5c.6 0 1.1.6 1.1 1.3v1.3h.1zm41 45.2h-5.1v-1.4c0-.9.7-1.8 1.8-1.8h1.6c1 0 1.8.8 1.8 1.8v1.4h-.1zM99.6 8.3h-3.7V7.1c0-.6.6-1.1 1.2-1.1h1.3c.6 0 1.2.5 1.2 1.1v1.2zm-16 50.9c0 .9-.9 1.3-1.7 1.3h-1.6c-.9 0-1.8-.6-1.8-1.6v-4.5c0-1 .8-1.6 1.8-1.6H82c.9 0 1.7.6 1.7 1.6v4.8h-.1zm-10.5-3.1H68v-1.5c0-.9.7-1.7 1.8-1.7h1.6c1 0 1.8.7 1.8 1.7v1.5h-.1zM18.2 11.2c0 .6-.5 1.1-1.1 1.1h-1.4c-.7 0-1.2-.5-1.2-1.1V7.1c0-.6.5-1.1 1.2-1.1h1.4c.6 0 1.1.5 1.1 1.1v4.1zm34.1 47.7c0 1-.7 1.6-1.8 1.6h-1.6c-1 0-1.7-.6-1.7-1.6v-4.7c0-.8.9-1.3 1.7-1.3h1.6c.9 0 1.8.6 1.8 1.6v4.4zm-10.8 0c0 1-.7 1.6-1.8 1.6h-1.6c-1 0-1.7-.6-1.7-1.6v-4.7c0-.5.6-1.3 1.7-1.3h1.6c.9 0 1.8.6 1.8 1.6v4.4zM7.9 28.4c0 .9-.7 1.8-1.7 1.8H1.5v-5.1h4.7c.9 0 1.7.8 1.7 1.8v1.5zm22.5 29.2H25l2.6-8.7h.3l2.5 8.7zM7.9 34.9c0 1-.7 1.7-1.7 1.7H1.5v-5h4.7c.9 0 1.7.8 1.7 1.8v1.5zm-1.3 24c0 1-.7 1.7-1.8 1.7H3.2c-.9 0-1.8-.6-1.8-1.7v-4.4c0-1.1.9-1.6 1.8-1.6h1.6c1 0 1.8.6 1.8 1.6v4.4zm120.7-1.5v-2.7c0-1.8-1.3-3.2-3.2-3.2h-1.6c-1.9 0-3.2 1.5-3.2 3.2v4.2c0 2 1.4 3.1 3.2 3.1h1.8c1.9 0 2.9-1.1 3-2.5h-1.6c-.1.7-.6 1.1-1.4 1.1h-1.6c-.9 0-1.9-.4-1.9-1.7v-1.5h6.5zm-1.5-1.3h-5.1v-1.4c0-.9.7-1.8 1.8-1.8h1.6c1 0 1.8.8 1.8 1.8v1.4h-.1zM112 58.9h-1.5c-.1 1.2-.6 1.6-1.8 1.6h-1.6c-1 0-1.7-.8-1.7-1.7v-4.1c0-1.2.6-1.9 1.7-1.9h1.6c.8 0 1.7.6 1.8 1.4v.2h1.5v-.2c0-1.6-1.6-2.8-3.2-2.8h-1.6c-1.9 0-3.2 1.5-3.2 3.2v4.1c0 1.7 1.3 3.2 3.2 3.2h1.8c2.1 0 3-1.3 3-3zm-92.1-24v-4.1c0-1.9-1.6-3.1-3.2-3.1H15c-1.7 0-3.2 1.1-3.2 2.7V35c0 1.9 1.4 3.2 3.2 3.2h1.6c1.8 0 3.3-1.5 3.3-3.3zm-1.5.2c0 1-.7 1.7-1.8 1.7H15c-.9 0-1.8-.6-1.8-1.7v-4.4c0-1.1.9-1.6 1.8-1.6h1.6c1 0 1.8.6 1.8 1.6v4.4zm12 .1h-1.5c-.1 1.2-.6 1.6-1.8 1.6h-1.6c-1 0-1.7-.8-1.7-1.7V31c0-1.2.6-1.9 1.7-1.9h1.6c.8 0 1.7.6 1.8 1.4v.2h1.5v-.2c0-1.6-1.6-2.8-3.2-2.8h-1.6c-1.9 0-3.2 1.5-3.2 3.2V35c0 1.7 1.3 3.2 3.2 3.2h1.8c2 0 2.9-1.3 3-3zm91.2-1.6v-2.7c0-1.8-1.3-3.2-3.2-3.2h-1.6c-1.9 0-3.2 1.5-3.2 3.2v4.2c0 2 1.4 3.1 3.2 3.1h1.8c1.9 0 2.9-1.1 3-2.5H120c-.1.7-.6 1.1-1.4 1.1H117c-.9 0-1.9-.4-1.9-1.7v-1.5h6.5zm-1.5-1.3H115v-1.4c0-.9.7-1.8 1.8-1.8h1.6c1 0 1.8.8 1.8 1.8v1.4h-.1zm-23 5.8v-7.2c0-2.1-1.6-3.1-3.2-3.1h-1.4c-1 0-1.6.4-2.1.9v-.8h-1.5v10.2h1.5v-7.2c0-1.1.9-1.7 1.8-1.7H94c1 0 1.7.6 1.7 1.8v7.1h1.4zm41 23.7v-7.2c0-2.1-1.6-3.1-3.2-3.1h-1.4c-1 0-1.6.4-2.1.9v-.8H130v10.2h1.5v-7.2c0-1.1.9-1.7 1.8-1.7h1.8c1 0 1.7.6 1.7 1.8v7.1h1.3zM290 18.6v-7.7c0-6-4.9-10.9-10.9-10.9h-7.7v7.8h7c2.1 0 3.8 1.7 3.8 3.8v7h7.8zm0 21.6V21.6h-7.8v18.6h7.8zM268.3 7.8V0h-7.6c-5.9 0-10.9 4.9-10.9 10.9v7.7h7.6v-7c0-2.1 1.9-3.8 4-3.8h6.9zM290 51v-7.7h-7.8v7c0 1.7-.9 3.1-2.4 3.6-.5.2-.9.2-1.4.2h-7v7.8h7.7c2.4 0 4.7-.7 6.5-2.1 1.9-1.4 3.3-3.5 4-5.8.3-1.1.4-2 .4-3zm-46.4-32.4v-7.7C243.6 5 238.7 0 232.7 0H225v7.8h7c2.1 0 3.9 1.7 3.9 3.8v7h7.7zm13.9 3h-7.7v18.6h7.6c0-4.6.1-1.1.1-18.6zm10.8 40.2V54h-6.9c-.5 0-.9 0-1.4-.2-1.5-.6-2.6-1.9-2.6-3.6v-7h-7.6V51c0 1 .1 1.9.4 2.9.6 2.3 2 4.5 4 5.8 1.8 1.4 4.1 2.1 6.5 2.1h7.6zM222 7.8V0h-18.6v18.6h7.8V7.8H222zm21.6 32.4v-2.3c0-.6 0-1-.1-1.5-.4-2.5-1.7-4.7-3.5-6.3 2.2-1.9 3.6-4.5 3.6-7.6v-.8h-7.7v.8c0 2.1-1.8 3.8-3.9 3.8h-7v7.8h7c1.6 0 3 .9 3.5 2.3.2.5.4.9.4 1.5v2.3h7.7zM222 34.1v-7.8h-10.8v-4.6h-7.8v18.6h7.8v-6.1H222v-.1zM243.6 51v-7.7h-7.7V51c0 1.3-.8 2.4-1.9 2.9-.4.2-.7.2-1.2.2H225v7.8h7.7c2.4 0 4.7-.7 6.5-2.1 1.9-1.4 3.3-3.5 4-5.8.3-1.1.4-2 .4-3zM222 61.8V54h-10.8V43.3h-7.8v18.6H222v-.1z"/></svg>
